<?xml version="1.0" encoding="utf-8"?>
<!-- Generator: Adobe Illustrator 16.0.4, SVG Export Plug-In . SVG Version: 6.00 Build 0)  -->
<!DOCTYPE svg PUBLIC "-//W3C//DTD SVG 1.1//EN" "http://www.w3.org/Graphics/SVG/1.1/DTD/svg11.dtd">
<svg version="1.1" id="Laag_1" xmlns="http://www.w3.org/2000/svg" xmlns:xlink="http://www.w3.org/1999/xlink" x="0px" y="0px"
	 width="100px" height="100px" viewBox="0 0 100 100" enable-background="new 0 0 100 100" xml:space="preserve">
<g id="BALD_1_">
	<path fill="#37BFF0" d="M72.926,46.915c0.523-3.533,1.75-6.326,1.174-13.287c-0.381-4.609-4.105-14.73-16.574-17.766
		c-2.439-0.868-5.067-1.346-7.806-1.346s-5.363,0.478-7.804,1.346c-12.469,3.035-16.193,13.156-16.575,17.766
		c-0.578,6.99,0.66,9.777,1.18,13.332c-2.36,0.629-3.956,2.916-3.646,5.406l0.623,5.008c0.318,2.561,2.532,4.42,5.06,4.354
		c0.305,2.566,0.578,4.766,0.764,6.281c0.742,6.049,2.816,7.293,7.618,10.494s8.004,4.98,12.78,4.98
		c4.777,0,7.979-1.779,12.782-4.98c4.801-3.201,6.875-4.445,7.617-10.494c0.186-1.518,0.459-3.723,0.766-6.295
		c2.594,0.154,4.896-1.725,5.221-4.34l0.623-5.008C77.045,49.819,75.373,47.483,72.926,46.915z"/>
</g>
<g id="FACE_1_">
	<circle opacity="0.7" fill="#020303" enable-background="new    " cx="43.354" cy="51.112" r="2"/>
	<circle opacity="0.7" fill="#020303" enable-background="new    " cx="56.652" cy="51.112" r="2"/>
	<g opacity="0.4">
		<path fill="#1E1E1C" d="M49.96,67.929h-0.475c-4.128,0-6.106-1.762-6.188-1.838c-0.328-0.299-0.352-0.807-0.052-1.135
			s0.808-0.352,1.136-0.053c0.012,0.01,1.646,1.418,5.104,1.418h0.475c3.455,0,5.09-1.402,5.105-1.418
			c0.327-0.299,0.837-0.275,1.136,0.053s0.276,0.838-0.052,1.135C56.068,66.167,54.088,67.929,49.96,67.929z"/>
	</g>
</g>
</svg>
